# Blender v2.78 (sub 0) OBJ File: 'V-shaped UFO_red.blend'
# www.blender.org
mtllib V-shaped UFO_red.mtl
o V-Shape2_Circle.003
v -10.941319 0.202697 2.872435
v 0.000000 0.202697 -5.744869
v -8.900565 0.202697 2.872434
v 10.941319 0.202697 2.872434
v 8.900565 0.202697 2.872434
v 5.730896 0.202697 0.247376
v 1.063008 0.202697 -3.431840
v -1.063008 0.202697 -3.431840
v -5.730896 0.202697 0.247376
v -6.603559 0.383890 -0.054442
v -0.000000 0.383890 -5.255358
v -5.371875 0.383890 -0.054442
v 6.603559 0.383890 -0.054442
v 5.371875 0.383890 -0.054442
v 3.458843 0.383890 -1.638779
v 0.641571 0.383890 -3.859345
v -0.641571 0.383890 -3.859345
v -3.458843 0.383890 -1.638779
v -2.201186 0.383890 -3.521719
v -0.000000 0.383890 -5.255358
v -5.371875 0.383890 -0.054442
v -6.603559 0.383890 -0.054442
v 4.402372 0.383890 -1.788081
v 6.603559 0.383890 -0.054442
v 5.371875 0.383890 -0.054442
v 3.458843 0.383890 -1.638779
v 0.641571 0.383890 -3.859345
v -0.641571 0.383890 -3.859345
v -3.458843 0.383890 -1.638779
v -4.402372 0.383890 -1.788081
v 2.201186 0.383890 -3.521719
v 0.000000 0.000000 -5.744869
v -10.941319 0.000000 2.872435
v 10.941319 0.000000 2.872434
v 8.900565 0.000000 2.872434
v 5.730896 0.000000 0.247376
v 1.063008 0.000000 -3.431840
v -1.063008 0.000000 -3.431840
v -5.730896 0.000000 0.247376
v -8.900565 0.000000 2.872434
v 0.000000 0.000000 -5.744869
v -10.941319 0.000000 2.872435
v 10.941319 0.000000 2.872434
v 8.900565 0.000000 2.872434
v 5.730896 0.000000 0.247376
v 1.063008 0.000000 -3.431840
v -1.063008 0.000000 -3.431840
v -5.730896 0.000000 0.247376
v -8.900565 0.000000 2.872434
v -7.294213 0.000000 0.000000
v -3.647106 0.000000 -2.872434
v 3.647107 0.000000 -2.872434
v 7.294213 0.000000 -0.000000
v -10.941319 -0.202697 2.872435
v 0.000000 -0.202697 -5.744869
v -8.900565 -0.202697 2.872434
v 10.941319 -0.202697 2.872434
v 8.900565 -0.202697 2.872434
v 5.730896 -0.202697 0.247376
v 1.063008 -0.202697 -3.431840
v -1.063008 -0.202697 -3.431840
v -5.730896 -0.202697 0.247376
v -6.603559 -0.383890 -0.054442
v -0.000000 -0.383890 -5.255358
v -5.371875 -0.383890 -0.054442
v 6.603559 -0.383890 -0.054442
v 5.371875 -0.383890 -0.054442
v 3.458843 -0.383890 -1.638779
v 0.641571 -0.383890 -3.859345
v -0.641571 -0.383890 -3.859345
v -3.458843 -0.383890 -1.638779
v -2.201186 -0.383890 -3.521719
v -0.000000 -0.383890 -5.255358
v -5.371875 -0.383890 -0.054442
v -6.603559 -0.383890 -0.054442
v 4.402372 -0.383890 -1.788081
v 6.603559 -0.383890 -0.054442
v 5.371875 -0.383890 -0.054442
v 3.458843 -0.383890 -1.638779
v 0.641571 -0.383890 -3.859345
v -0.641571 -0.383890 -3.859345
v -3.458843 -0.383890 -1.638779
v -4.402372 -0.383890 -1.788081
v 2.201186 -0.383890 -3.521719
v 10.704184 -0.206244 2.815140
v 6.536249 -0.380343 0.002852
v 5.584940 -0.380343 0.002852
v 8.975480 -0.206244 2.815140
v -8.975480 -0.206244 2.815140
v -5.584940 -0.380343 0.002852
v -6.536249 -0.380343 0.002852
v -10.704184 -0.206244 2.815140
v -6.384732 -0.383890 -0.111891
v -5.446638 -0.383890 -0.111891
v -3.641518 -0.383890 -1.606857
v -4.345206 -0.383890 -1.718207
v -0.953947 -0.383890 -3.728095
v -2.111413 -0.383890 -3.477526
v -4.216583 -0.383890 -1.819510
v -3.516043 -0.383890 -1.708658
v 3.516042 -0.383890 -1.708658
v 4.216583 -0.383890 -1.819510
v 2.111413 -0.383890 -3.477527
v 0.953946 -0.383890 -3.728095
v 4.345206 -0.383890 -1.718207
v 3.641517 -0.383890 -1.606857
v 5.446638 -0.383890 -0.111891
v 6.384732 -0.383890 -0.111891
v 1.888596 -0.383890 -3.653016
v 0.285047 -0.383890 -4.915959
v 0.752427 -0.383890 -3.898974
v -1.888596 -0.383890 -3.653016
v -0.752428 -0.383890 -3.898974
v -0.285048 -0.383890 -4.915958
v 0.486100 -0.383890 -3.916794
v -0.000000 -0.383890 -4.974514
v -0.486101 -0.383890 -3.916794
v 6.603559 -0.383890 -0.054442
v 10.941319 -0.202697 2.872434
v 5.371875 -0.383890 -0.054442
v 8.900565 -0.202697 2.872434
v -5.371875 -0.383890 -0.054442
v -8.900565 -0.202697 2.872434
v -6.603559 -0.383890 -0.054442
v -10.941319 -0.202697 2.872435
v -5.371875 -0.383890 -0.054442
v -6.603559 -0.383890 -0.054442
v -3.458843 -0.383890 -1.638779
v -4.402372 -0.383890 -1.788081
v -2.201186 -0.383890 -3.521719
v -0.641571 -0.383890 -3.859345
v -4.402372 -0.383890 -1.788081
v -3.458843 -0.383890 -1.638779
v 4.402372 -0.383890 -1.788081
v 3.458843 -0.383890 -1.638779
v 2.201186 -0.383890 -3.521719
v 0.641571 -0.383890 -3.859345
v 3.458843 -0.383890 -1.638779
v 4.402372 -0.383890 -1.788081
v 5.371875 -0.383890 -0.054442
v 6.603559 -0.383890 -0.054442
v -0.000000 -0.383890 -5.255358
v 2.201186 -0.383890 -3.521719
v 0.641571 -0.383890 -3.859345
v -0.641571 -0.383890 -3.859345
v -2.201186 -0.383890 -3.521719
v -0.000000 -0.383890 -5.255358
v -0.000000 -0.383890 -5.255358
v 0.641571 -0.383890 -3.859345
v -0.641571 -0.383890 -3.859345
v 6.468939 -0.340643 0.057491
v 10.467048 -0.173638 2.755190
v 5.798005 -0.340643 0.057491
v 9.050395 -0.173638 2.755190
v -5.798004 -0.340643 0.057491
v -9.050395 -0.173638 2.755190
v -6.468939 -0.340643 0.057492
v -10.467048 -0.173638 2.755191
v -5.521400 -0.347640 -0.169339
v -6.165906 -0.347640 -0.169339
v -3.824192 -0.347640 -1.574935
v -4.288040 -0.347640 -1.648334
v -2.021640 -0.347640 -3.433333
v -1.266323 -0.347640 -3.596845
v -4.030794 -0.347640 -1.850939
v -3.573242 -0.347640 -1.778537
v 4.030794 -0.347640 -1.850939
v 3.573242 -0.347640 -1.778537
v 2.021640 -0.347640 -3.433334
v 1.266322 -0.347640 -3.596845
v 3.824192 -0.347640 -1.574935
v 4.288040 -0.347640 -1.648334
v 5.521400 -0.347640 -0.169340
v 6.165906 -0.347640 -0.169340
v 0.570094 -0.347640 -4.576561
v 1.576006 -0.347640 -3.784312
v 0.863284 -0.347640 -3.938602
v -0.863284 -0.347640 -3.938602
v -1.576005 -0.347640 -3.784312
v -0.570095 -0.347640 -4.576560
v -0.000000 -0.347640 -4.693669
v 0.330630 -0.347640 -3.974242
v -0.330630 -0.347640 -3.974242
v 6.536249 -0.344190 0.000197
v 10.704184 -0.170091 2.812484
v 5.584940 -0.344190 0.000197
v 8.975480 -0.170091 2.812484
v -5.584940 -0.344190 0.000197
v -8.975480 -0.170091 2.812485
v -6.536249 -0.344190 0.000197
v -10.704184 -0.170091 2.812485
v -5.446638 -0.347640 -0.111891
v -6.384732 -0.347640 -0.111891
v -3.641518 -0.347640 -1.606857
v -4.345206 -0.347640 -1.718207
v -2.111413 -0.347640 -3.477526
v -0.953947 -0.347640 -3.728095
v -4.216583 -0.347640 -1.819510
v -3.516043 -0.347640 -1.708658
v 4.216583 -0.347640 -1.819510
v 3.516042 -0.347640 -1.708658
v 2.111413 -0.347640 -3.477527
v 0.953946 -0.347640 -3.728095
v 3.641517 -0.347640 -1.606857
v 4.345206 -0.347640 -1.718207
v 5.446638 -0.347640 -0.111891
v 6.384732 -0.347640 -0.111891
v 0.285047 -0.347640 -4.915959
v 1.888596 -0.347640 -3.653016
v 0.752427 -0.347640 -3.898974
v -0.752428 -0.347640 -3.898974
v -1.888596 -0.347640 -3.653016
v -0.285048 -0.347640 -4.915958
v -0.000000 -0.347640 -4.974514
v 0.486100 -0.347640 -3.916794
v -0.486101 -0.347640 -3.916794
v 6.750984 -0.265077 0.310658
v 9.427202 -0.129959 2.493265
v 6.208156 -0.265077 0.310658
v 8.839542 -0.129959 2.493265
v -6.208156 -0.265077 0.310659
v -8.839542 -0.129959 2.493265
v -6.750984 -0.265077 0.310659
v -9.427201 -0.129959 2.493266
v -5.412277 -0.287857 -0.307034
v -5.933722 -0.287857 -0.307034
v -4.039129 -0.287857 -1.444248
v -4.414411 -0.287857 -1.503632
v -2.155556 -0.287857 -3.286613
v -1.544457 -0.287857 -3.418904
v -3.781086 -0.287857 -2.006357
v -3.410899 -0.287857 -1.947779
v 3.781087 -0.287857 -2.006357
v 3.410899 -0.287857 -1.947780
v 2.155556 -0.287857 -3.286613
v 1.544457 -0.287857 -3.418905
v 4.039129 -0.287857 -1.444249
v 4.414411 -0.287857 -1.503632
v 5.412277 -0.287857 -0.307034
v 5.933722 -0.287857 -0.307034
v 0.652777 -0.287857 -4.485534
v 1.466622 -0.287857 -3.844556
v 0.889985 -0.287857 -3.969386
v -0.889986 -0.287857 -3.969386
v -1.466622 -0.287857 -3.844556
v -0.652778 -0.287857 -4.485533
v -0.000000 -0.287857 -4.602092
v 0.267500 -0.287857 -4.020031
v -0.267500 -0.287857 -4.020031
vn 0.6377 -0.0191 -0.7700
vn -0.5721 -0.3819 -0.7258
vn 0.2637 -0.9046 0.3348
vn 0.0000 -0.9981 -0.0618
vn 0.0000 -0.9207 -0.3902
vn -0.2637 -0.9046 0.3348
vn 0.5721 -0.3819 -0.7258
vn -0.6377 -0.0191 -0.7700
vn 0.6378 0.0000 -0.7702
vn -0.0000 0.0000 -1.0000
vn -0.6378 0.0000 -0.7702
vn 0.6190 0.0000 -0.7854
vn -0.6187 0.0000 0.7856
vn 0.6187 0.0000 0.7856
vn -0.6190 0.0000 -0.7854
vn 0.0000 0.0000 1.0000
vn 0.0000 0.9923 -0.1240
vn 0.0000 -1.0000 0.0000
vn 0.6377 0.0191 -0.7700
vn -0.5721 0.3819 -0.7258
vn 0.2637 0.9046 0.3348
vn 0.0000 0.9207 -0.3902
vn -0.2637 0.9046 0.3348
vn 0.5721 0.3819 -0.7258
vn -0.6377 0.0191 -0.7700
vn 0.0000 -0.9981 -0.0624
vn 0.9086 0.0000 0.4176
vn 0.0000 -0.0732 -0.9973
vn -0.1563 0.0000 0.9877
vn 0.2116 0.0000 0.9774
vn 0.5600 -0.0607 -0.8262
vn -0.6187 0.0000 -0.7856
vn -0.2116 0.0000 0.9774
vn -0.2116 0.0000 -0.9774
vn -0.9086 0.0000 0.4176
vn 0.0000 0.9981 -0.0618
vn 0.0000 1.0000 -0.0000
vn 0.0000 0.9864 0.1645
vn 0.0463 0.9550 0.2929
vn -0.5857 0.3223 -0.7437
vn -0.4355 0.7629 0.4778
vn 0.5442 0.4767 0.6904
vn 0.7720 0.5275 0.3548
vn 0.0000 0.9582 -0.2860
vn -0.0463 0.9550 0.2929
vn 0.1816 0.5131 0.8389
vn 0.6190 0.0000 0.7854
vn -0.6391 0.0563 0.7670
vn 0.1563 0.0000 0.9877
vn 0.0000 0.0733 0.9973
vn 0.9086 0.0000 -0.4176
vn 0.6187 0.0000 -0.7856
vn 0.6391 0.0563 0.7670
vn -0.9086 0.0000 -0.4176
vn 0.2116 0.0000 -0.9774
vn -0.6190 0.0000 0.7854
vn -0.5600 -0.0607 -0.8262
vn -0.1563 0.0000 -0.9877
vn 0.0000 0.0732 0.9973
vn -0.6378 0.0000 0.7702
vn 0.6378 0.0000 0.7702
vn 0.1563 0.0000 -0.9877
vn 0.7654 0.5389 -0.3518
vn 0.5440 0.4765 -0.6907
vn 0.4355 0.7629 0.4778
vn -0.7654 0.5389 -0.3518
vn 0.0975 0.8874 -0.4506
vn 0.0000 0.6081 0.7939
vn -0.5441 0.4767 0.6904
vn -0.1528 0.9513 -0.2678
vn -0.0539 0.9386 -0.3407
vn -0.5446 0.5205 0.6576
vn 0.0000 0.9173 0.3983
vn 0.5446 0.5205 0.6576
vn 0.5321 0.5104 -0.6755
vn 0.0539 0.9386 -0.3407
vn 0.5857 0.3223 -0.7437
vn -0.5321 0.5104 -0.6755
vn -0.7720 0.5275 0.3548
vn -0.0975 0.8874 -0.4506
vn -0.1816 0.5131 0.8389
vn -0.5440 0.4765 -0.6907
vn 0.1528 0.9513 -0.2678
usemtl Hull.001
s off
f 5//1 6//1 15//1 14//1
f 8//2 9//2 18//2 17//2
f 1//3 2//3 11//3 10//3
f 4//4 5//4 14//4 13//4
f 7//5 8//5 17//5 16//5
f 2//6 4//6 13//6 11//6
f 6//7 7//7 16//7 15//7
f 9//8 3//8 12//8 18//8
f 3//4 1//4 10//4 12//4
f 35//9 36//9 6//9 5//9
f 40//10 33//10 1//10 3//10
f 39//11 40//11 3//11 9//11
f 36//12 37//12 7//12 6//12
f 32//13 34//13 4//13 2//13
f 37//10 38//10 8//10 7//10
f 34//10 35//10 5//10 4//10
f 33//14 32//14 2//14 1//14
f 38//15 39//15 9//15 8//15
f 14//16 15//16 26//16 25//16
f 12//16 10//16 22//16 21//16
f 18//16 12//16 21//16 29//16
f 15//16 16//16 27//16 26//16
f 11//17 13//17 24//17 23//17 31//17 20//17
f 16//16 17//16 28//16 27//16
f 13//16 14//16 25//16 24//16
f 10//16 11//16 20//16 19//16 30//16 22//16
f 17//16 18//16 29//16 28//16
f 22//18 30//18 29//18 21//18
f 28//18 29//18 30//18 19//18
f 26//18 27//18 31//18 23//18
f 23//18 24//18 25//18 26//18
f 31//18 27//18 20//18
f 19//18 20//18 28//18
f 27//18 28//18 20//18
f 35//16 36//16 45//16 44//16
f 39//16 40//16 49//16 48//16
f 36//16 37//16 46//16 45//16
f 37//16 38//16 47//16 46//16
f 38//16 39//16 48//16 47//16
f 46//18 47//18 41//18
f 58//19 67//19 68//19 59//19
f 61//20 70//20 71//20 62//20
f 54//21 63//21 64//21 55//21
f 60//22 69//22 70//22 61//22
f 55//23 64//23 66//23 57//23
f 59//24 68//24 69//24 60//24
f 62//25 71//25 65//25 56//25
f 35//9 58//9 59//9 36//9
f 40//10 56//10 54//10 33//10
f 39//11 62//11 56//11 40//11
f 36//12 59//12 60//12 37//12
f 32//13 55//13 57//13 34//13
f 37//10 60//10 61//10 38//10
f 34//10 57//10 58//10 35//10
f 33//14 54//14 55//14 32//14
f 38//15 61//15 62//15 39//15
f 67//16 78//16 79//16 68//16
f 65//16 74//16 75//16 63//16
f 71//16 82//16 74//16 65//16
f 68//16 79//16 80//16 69//16
f 64//26 73//26 84//26 76//26 77//26 66//26
f 69//16 80//16 81//16 70//16
f 66//16 77//16 78//16 67//16
f 63//18 75//18 83//18 72//18 73//18 64//18
f 70//16 81//16 82//16 71//16
f 113//27 114//27 213//27 211//27
f 66//16 118//16 119//16 57//16
f 67//16 120//16 118//16 66//16
f 58//16 121//16 120//16 67//16
f 57//16 119//16 121//16 58//16
f 86//28 87//28 186//28 184//28
f 65//16 122//16 123//16 56//16
f 63//16 124//16 122//16 65//16
f 54//16 125//16 124//16 63//16
f 56//16 123//16 125//16 54//16
f 99//29 100//29 199//29 198//29
f 74//16 126//16 127//16 75//16
f 82//16 128//16 126//16 74//16
f 83//16 129//16 128//16 82//16
f 75//16 127//16 129//16 83//16
f 112//30 113//30 211//30 212//30
f 72//16 130//16 131//16 81//16
f 83//16 132//16 130//16 72//16
f 82//16 133//16 132//16 83//16
f 81//16 131//16 133//16 82//16
f 85//31 86//31 184//31 185//31
f 76//16 134//16 135//16 79//16
f 84//16 136//16 134//16 76//16
f 80//16 137//16 136//16 84//16
f 79//16 135//16 137//16 80//16
f 98//32 99//32 198//32 196//32
f 79//16 138//16 139//16 76//16
f 78//16 140//16 138//16 79//16
f 77//16 141//16 140//16 78//16
f 76//16 139//16 141//16 77//16
f 111//33 109//33 209//33 210//33
f 73//16 142//16 143//16 84//16
f 80//16 144//16 142//16 73//16
f 84//16 143//16 144//16 80//16
f 97//34 98//34 196//34 197//34
f 81//16 145//16 146//16 72//16
f 73//16 147//16 145//16 81//16
f 72//16 146//16 147//16 73//16
f 110//35 111//35 210//35 208//35
f 73//16 148//16 149//16 80//16
f 81//16 150//16 148//16 73//16
f 80//16 149//16 150//16 81//16
f 86//36 85//36 119//36 118//36
f 87//36 86//36 118//36 120//36
f 88//36 87//36 120//36 121//36
f 85//36 88//36 121//36 119//36
f 90//36 89//36 123//36 122//36
f 91//36 90//36 122//36 124//36
f 92//36 91//36 124//36 125//36
f 89//36 92//36 125//36 123//36
f 94//37 93//37 127//37 126//37
f 95//37 94//37 126//37 128//37
f 96//37 95//37 128//37 129//37
f 93//37 96//37 129//37 127//37
f 98//37 97//37 131//37 130//37
f 99//37 98//37 130//37 132//37
f 100//37 99//37 132//37 133//37
f 97//37 100//37 133//37 131//37
f 102//37 101//37 135//37 134//37
f 103//37 102//37 134//37 136//37
f 104//37 103//37 136//37 137//37
f 101//37 104//37 137//37 135//37
f 106//37 105//37 139//37 138//37
f 107//37 106//37 138//37 140//37
f 108//37 107//37 140//37 141//37
f 105//37 108//37 141//37 139//37
f 110//37 109//37 143//37 142//37
f 111//37 110//37 142//37 144//37
f 109//37 111//37 144//37 143//37
f 113//37 112//37 146//37 145//37
f 114//37 113//37 145//37 147//37
f 112//37 114//37 147//37 146//37
f 116//37 115//37 149//37 148//37
f 117//37 116//37 148//37 150//37
f 115//37 117//37 150//37 149//37
f 154//38 152//38 218//38 220//38
f 168//39 167//39 233//39 234//39
f 180//40 179//40 245//40 246//40
f 153//41 154//41 220//41 219//41
f 166//42 164//42 230//42 232//42
f 178//43 180//43 246//43 244//43
f 151//44 153//44 219//44 217//44
f 165//45 166//45 232//45 231//45
f 179//46 178//46 244//46 245//46
f 100//47 97//47 197//47 199//47
f 87//48 88//48 187//48 186//48
f 114//32 112//32 212//32 213//32
f 101//49 102//49 200//49 201//49
f 88//50 85//50 185//50 187//50
f 115//51 116//51 214//51 215//51
f 102//52 103//52 202//52 200//52
f 89//53 90//53 188//53 189//53
f 116//54 117//54 216//54 214//54
f 103//55 104//55 203//55 202//55
f 90//28 91//28 190//28 188//28
f 117//16 115//16 215//16 216//16
f 104//56 101//56 201//56 203//56
f 91//57 92//57 191//57 190//57
f 105//58 106//58 204//58 205//58
f 92//59 89//59 189//59 191//59
f 106//60 107//60 206//60 204//60
f 93//16 94//16 192//16 193//16
f 107//16 108//16 207//16 206//16
f 94//61 95//61 194//61 192//61
f 108//52 105//52 205//52 207//52
f 95//62 96//62 195//62 194//62
f 109//52 110//52 208//52 209//52
f 96//32 93//32 193//32 195//32
f 151//36 152//36 185//36 184//36
f 153//36 151//36 184//36 186//36
f 154//36 153//36 186//36 187//36
f 152//36 154//36 187//36 185//36
f 155//36 156//36 189//36 188//36
f 157//36 155//36 188//36 190//36
f 158//36 157//36 190//36 191//36
f 156//36 158//36 191//36 189//36
f 159//37 160//37 193//37 192//37
f 161//37 159//37 192//37 194//37
f 162//37 161//37 194//37 195//37
f 160//37 162//37 195//37 193//37
f 163//37 164//37 197//37 196//37
f 165//37 163//37 196//37 198//37
f 166//37 165//37 198//37 199//37
f 164//37 166//37 199//37 197//37
f 167//37 168//37 201//37 200//37
f 169//37 167//37 200//37 202//37
f 170//37 169//37 202//37 203//37
f 168//37 170//37 203//37 201//37
f 171//37 172//37 205//37 204//37
f 173//37 171//37 204//37 206//37
f 174//37 173//37 206//37 207//37
f 172//37 174//37 207//37 205//37
f 175//37 176//37 209//37 208//37
f 177//37 175//37 208//37 210//37
f 176//37 177//37 210//37 209//37
f 178//37 179//37 212//37 211//37
f 180//37 178//37 211//37 213//37
f 179//37 180//37 213//37 212//37
f 181//37 182//37 215//37 214//37
f 183//37 181//37 214//37 216//37
f 182//37 183//37 216//37 215//37
f 182//63 181//63 247//63 248//63
f 167//64 169//64 235//64 233//64
f 156//65 155//65 221//65 222//65
f 181//66 183//66 249//66 247//66
f 169//67 170//67 236//67 235//67
f 155//44 157//44 223//44 221//44
f 183//68 182//68 248//68 249//68
f 170//69 168//69 234//69 236//69
f 157//70 158//70 224//70 223//70
f 172//71 171//71 237//71 238//71
f 158//38 156//38 222//38 224//38
f 171//72 173//72 239//72 237//72
f 160//73 159//73 225//73 226//73
f 173//73 174//73 240//73 239//73
f 159//74 161//74 227//74 225//74
f 174//75 172//75 238//75 240//75
f 161//76 162//76 228//76 227//76
f 176//77 175//77 241//77 242//77
f 162//78 160//78 226//78 228//78
f 175//79 177//79 243//79 241//79
f 164//80 163//80 229//80 230//80
f 177//81 176//81 242//81 243//81
f 163//82 165//82 231//82 229//82
f 152//83 151//83 217//83 218//83
usemtl Lights2
f 218//36 217//36 219//36 220//36
f 222//36 221//36 223//36 224//36
f 226//37 225//37 227//37 228//37
f 230//37 229//37 231//37 232//37
f 234//37 233//37 235//37 236//37
f 238//37 237//37 239//37 240//37
f 242//37 241//37 243//37
f 245//37 244//37 246//37
f 248//37 247//37 249//37
l 49 42
l 43 44
l 41 32
l 48 50
l 47 51
l 45 53
l 46 52
